<svg version="1.1" viewBox="0.0 0.0 109.22572178477691 570.2729658792651" fill="none" stroke="none" stroke-linecap="square" stroke-miterlimit="10" xmlns:xlink="http://www.w3.org/1999/xlink" xmlns="http://www.w3.org/2000/svg"><clipPath id="p.0"><path d="m0 0l109.22572 0l0 570.27295l-109.22572 0l0 -570.27295z" clip-rule="nonzero"/></clipPath><g clip-path="url(#p.0)"><path fill="#000000" fill-opacity="0.0" d="m0 0l109.22572 0l0 570.27295l-109.22572 0z" fill-rule="evenodd"/><path fill="#434343" d="m0.007874016 0l109.76378 0l0 570.1102l-109.76378 0z" fill-rule="evenodd"/><path stroke="#000000" stroke-width="1.0" stroke-linejoin="round" stroke-linecap="butt" d="m0.007874016 0l109.76378 0l0 570.1102l-109.76378 0z" fill-rule="evenodd"/><path fill="#ffffff" d="m49.56693 10.629921l10.645668 0l0 548.85034l-10.645668 0z" fill-rule="evenodd"/><path stroke="#000000" stroke-width="1.0" stroke-linejoin="round" stroke-linecap="butt" d="m49.56693 10.629921l10.645668 0l0 548.85034l-10.645668 0z" fill-rule="evenodd"/><path fill="#ffffff" d="m10.952756 10.467192l87.874016 0l0 14.330709l-87.874016 0z" fill-rule="evenodd"/><path stroke="#000000" stroke-width="1.0" stroke-linejoin="round" stroke-linecap="butt" d="m10.952756 10.467192l87.874016 0l0 14.330709l-87.874016 0z" fill-rule="evenodd"/><path fill="#ffffff" d="m10.952756 278.1286l87.874016 0l0 14.015747l-87.874016 0z" fill-rule="evenodd"/><path stroke="#000000" stroke-width="1.0" stroke-linejoin="round" stroke-linecap="butt" d="m10.952756 278.1286l87.874016 0l0 14.015747l-87.874016 0z" fill-rule="evenodd"/><path fill="#ffffff" d="m10.675853 545.46454l87.874016 0l0 14.015747l-87.874016 0z" fill-rule="evenodd"/><path stroke="#000000" stroke-width="1.0" stroke-linejoin="round" stroke-linecap="butt" d="m10.675853 545.46454l87.874016 0l0 14.015747l-87.874016 0z" fill-rule="evenodd"/><path fill="#ffffff" d="m25.086615 42.164043l59.055115 0l0 7.0866127l-59.055115 0z" fill-rule="evenodd"/><path stroke="#000000" stroke-width="1.0" stroke-linejoin="round" stroke-linecap="butt" d="m25.086615 42.164043l59.055115 0l0 7.0866127l-59.055115 0z" fill-rule="evenodd"/><path fill="#ffffff" d="m25.085302 70.31628l59.055115 0l0 7.086609l-59.055115 0z" fill-rule="evenodd"/><path stroke="#000000" stroke-width="1.0" stroke-linejoin="round" stroke-linecap="butt" d="m25.085302 70.31628l59.055115 0l0 7.086609l-59.055115 0z" fill-rule="evenodd"/><path fill="#ffffff" d="m25.360893 96.350395l59.055115 0l0 7.086609l-59.055115 0z" fill-rule="evenodd"/><path stroke="#000000" stroke-width="1.0" stroke-linejoin="round" stroke-linecap="butt" d="m25.360893 96.350395l59.055115 0l0 7.086609l-59.055115 0z" fill-rule="evenodd"/><path fill="#ffffff" d="m25.085302 120.72966l59.055115 0l0 7.0866165l-59.055115 0z" fill-rule="evenodd"/><path stroke="#000000" stroke-width="1.0" stroke-linejoin="round" stroke-linecap="butt" d="m25.085302 120.72966l59.055115 0l0 7.0866165l-59.055115 0z" fill-rule="evenodd"/><path fill="#ffffff" d="m25.082678 145.10892l59.055115 0l0 7.086624l-59.055115 0z" fill-rule="evenodd"/><path stroke="#000000" stroke-width="1.0" stroke-linejoin="round" stroke-linecap="butt" d="m25.082678 145.10892l59.055115 0l0 7.086624l-59.055115 0z" fill-rule="evenodd"/><path fill="#ffffff" d="m25.082678 167.83202l59.055115 0l0 7.086624l-59.055115 0z" fill-rule="evenodd"/><path stroke="#000000" stroke-width="1.0" stroke-linejoin="round" stroke-linecap="butt" d="m25.082678 167.83202l59.055115 0l0 7.086624l-59.055115 0z" fill-rule="evenodd"/><path fill="#ffffff" d="m25.082678 192.94751l59.055115 0l0 7.086609l-59.055115 0z" fill-rule="evenodd"/><path stroke="#000000" stroke-width="1.0" stroke-linejoin="round" stroke-linecap="butt" d="m25.082678 192.94751l59.055115 0l0 7.086609l-59.055115 0z" fill-rule="evenodd"/><path fill="#ffffff" d="m25.360893 221.3412l59.055115 0l0 7.086624l-59.055115 0z" fill-rule="evenodd"/><path stroke="#000000" stroke-width="1.0" stroke-linejoin="round" stroke-linecap="butt" d="m25.360893 221.3412l59.055115 0l0 7.086624l-59.055115 0z" fill-rule="evenodd"/><path fill="#ffffff" d="m25.08399 249.73491l59.055115 0l0 7.086624l-59.055115 0z" fill-rule="evenodd"/><path stroke="#000000" stroke-width="1.0" stroke-linejoin="round" stroke-linecap="butt" d="m25.08399 249.73491l59.055115 0l0 7.086624l-59.055115 0z" fill-rule="evenodd"/><path fill="#ffffff" d="m24.947506 311.47507l59.05512 0l0 7.086609l-59.05512 0z" fill-rule="evenodd"/><path stroke="#000000" stroke-width="1.0" stroke-linejoin="round" stroke-linecap="butt" d="m24.947506 311.47507l59.05512 0l0 7.086609l-59.05512 0z" fill-rule="evenodd"/><path fill="#ffffff" d="m24.946194 339.6273l59.05512 0l0 7.086609l-59.05512 0z" fill-rule="evenodd"/><path stroke="#000000" stroke-width="1.0" stroke-linejoin="round" stroke-linecap="butt" d="m24.946194 339.6273l59.05512 0l0 7.086609l-59.05512 0z" fill-rule="evenodd"/><path fill="#ffffff" d="m25.221785 365.6614l59.055115 0l0 7.086609l-59.055115 0z" fill-rule="evenodd"/><path stroke="#000000" stroke-width="1.0" stroke-linejoin="round" stroke-linecap="butt" d="m25.221785 365.6614l59.055115 0l0 7.086609l-59.055115 0z" fill-rule="evenodd"/><path fill="#ffffff" d="m24.946194 390.04068l59.05512 0l0 7.086609l-59.05512 0z" fill-rule="evenodd"/><path stroke="#000000" stroke-width="1.0" stroke-linejoin="round" stroke-linecap="butt" d="m24.946194 390.04068l59.05512 0l0 7.086609l-59.05512 0z" fill-rule="evenodd"/><path fill="#ffffff" d="m24.94357 414.41995l59.05512 0l0 7.086609l-59.05512 0z" fill-rule="evenodd"/><path stroke="#000000" stroke-width="1.0" stroke-linejoin="round" stroke-linecap="butt" d="m24.94357 414.41995l59.05512 0l0 7.086609l-59.05512 0z" fill-rule="evenodd"/><path fill="#ffffff" d="m24.94357 437.14304l59.05512 0l0 7.086609l-59.05512 0z" fill-rule="evenodd"/><path stroke="#000000" stroke-width="1.0" stroke-linejoin="round" stroke-linecap="butt" d="m24.94357 437.14304l59.05512 0l0 7.086609l-59.05512 0z" fill-rule="evenodd"/><path fill="#ffffff" d="m24.94357 462.25854l59.05512 0l0 7.086609l-59.05512 0z" fill-rule="evenodd"/><path stroke="#000000" stroke-width="1.0" stroke-linejoin="round" stroke-linecap="butt" d="m24.94357 462.25854l59.05512 0l0 7.086609l-59.05512 0z" fill-rule="evenodd"/><path fill="#ffffff" d="m25.221785 490.65222l59.055115 0l0 7.086609l-59.055115 0z" fill-rule="evenodd"/><path stroke="#000000" stroke-width="1.0" stroke-linejoin="round" stroke-linecap="butt" d="m25.221785 490.65222l59.055115 0l0 7.086609l-59.055115 0z" fill-rule="evenodd"/><path fill="#ffffff" d="m24.944881 519.04596l59.05512 0l0 7.086609l-59.05512 0z" fill-rule="evenodd"/><path stroke="#000000" stroke-width="1.0" stroke-linejoin="round" stroke-linecap="butt" d="m24.944881 519.04596l59.05512 0l0 7.086609l-59.05512 0z" fill-rule="evenodd"/></g></svg>